<?xml version="1.0" standalone="no"?>
<!DOCTYPE svg PUBLIC "-//W3C//DTD SVG 20010904//EN"
 "http://www.w3.org/TR/2001/REC-SVG-20010904/DTD/svg10.dtd">
<svg version="1.0" xmlns="http://www.w3.org/2000/svg"
 width="2560.000000pt" height="1985.000000pt" viewBox="0 0 2560.000000 1985.000000"
 preserveAspectRatio="xMidYMid meet">

<g transform="translate(0.000000,1985.000000) scale(0.100000,-0.100000)"
fill="#000000" stroke="none">
<path d="M4931 19830 c-135 -49 -258 -159 -317 -284 -28 -59 -146 -554 -704
-2950 -430 -1849 -670 -2897 -670 -2931 0 -126 56 -220 164 -275 l69 -35 383
-3 c211 -2 384 -6 384 -10 -1 -4 -40 -36 -88 -72 -157 -118 -574 -454 -767
-620 -515 -442 -959 -873 -1361 -1320 -1034 -1154 -1697 -2339 -1919 -3433
-148 -734 -115 -1386 104 -2028 378 -1107 1314 -2005 2714 -2603 596 -255
1246 -448 1999 -595 172 -34 520 -91 555 -91 17 0 23 9 32 48 6 26 49 209 95
407 46 198 87 376 91 396 l7 36 -149 37 c-1273 318 -2313 829 -3043 1498 -785
718 -1205 1596 -1255 2623 -7 146 8 472 31 645 150 1174 765 2392 1828 3625
366 424 898 955 1366 1364 l105 91 1540 -2 c1694 -4 1571 1 1662 -67 69 -53
107 -131 111 -230 3 -71 -31 -223 -468 -2101 -259 -1114 -487 -2072 -506
-2129 -216 -649 -798 -1097 -1728 -1330 l-151 -38 -3 -82 -3 -81 2628 2 2628
3 67 26 c91 35 155 78 222 149 110 115 57 -91 793 3065 614 2632 667 2867 667
2950 1 74 -3 98 -22 136 -31 64 -85 117 -151 148 l-56 26 -2095 5 c-1981 5
-2097 6 -2134 23 -87 39 -154 115 -177 201 -29 106 -20 151 280 1440 127 544
231 997 231 1008 0 26 -1 26 -135 -32 -11 -5 -56 -22 -100 -39 -44 -16 -125
-49 -180 -72 -55 -23 -125 -52 -155 -64 -487 -202 -1058 -463 -1565 -717 -374
-187 -429 -213 -421 -199 17 28 1115 630 1194 655 11 4 23 13 26 21 3 8 12 15
20 15 8 0 92 39 188 86 246 123 667 321 920 434 120 54 228 104 240 112 20 13
33 59 102 354 43 186 188 812 323 1389 276 1177 273 1160 220 1267 -30 61 -74
105 -140 140 l-42 23 -1715 2 c-1681 2 -1716 2 -1769 -17z"/>
<path d="M21910 7021 c-87 -65 -637 -399 -988 -600 -3326 -1903 -7450 -3126
-11082 -3287 l-156 -7 -22 -96 c-11 -53 -44 -192 -71 -310 -28 -118 -48 -217
-46 -220 10 -9 531 47 975 105 1592 208 3302 611 4920 1160 2200 746 4176
1703 5940 2877 205 137 560 386 560 393 0 6 -3 5 -30 -15z"/>
</g>
</svg>
